<?xml version="1.0" encoding="UTF-8"?>
<svg width="32px" height="32px" fill="#000000" version="1.1" viewBox="0 0 48 48" xmlns="http://www.w3.org/2000/svg">
 <path d="m24 0c-13.234 0-24 10.766-24 24s10.766 24 24 24 24-10.766 24-24-10.766-24-24-24zm0 3.6c11.288 0 20.4 9.1121 20.4 20.4 0 9.1984-6.0517 16.947-14.4 19.502v-6.1383c0-2.2921-1.3208-4.2577-3.2297-5.2359a12 9.6 0 0 0 7.3547-14.463c0.53225-1.6383 1.1268-4.512-0.28594-6.7734-2.7238 0-4.4815 1.8671-5.3203 3.0281a12 9.6 0 0 0-4.5188-0.71953 12 9.6 0 0 0-4.5234 0.7125c-0.84089-1.1616-2.5971-3.0211-5.3156-3.0211-1.6213 2.5952-0.61903 5.3861-0.08203 6.525a12 9.6 0 0 0 7.1391 14.719c-1.5674 0.80782-2.7412 2.2737-3.1008 4.0523h-1.5773c-1.5564 0-2.1611-0.63242-3.0023-1.6992-0.8304-1.0668-1.7233-1.7836-2.7961-2.0812-0.5784-0.0612-0.96806 0.37875-0.46406 0.76875 1.7028 1.1592 1.8203 3.0564 2.5031 4.2984 0.6216 1.1184 1.8952 2.1258 3.3352 2.1258h1.8844v3.9023c-8.3483-2.5553-14.4-10.304-14.4-19.502 0-11.288 9.1121-20.4 20.4-20.4z" fill="#fff" stroke-width="1.2"/>
</svg>
