<svg width="32px" height="32px" fill="#000000" version="1.1" viewBox="0 0 32 32" xmlns="http://www.w3.org/2000/svg">
 <path d="m16 0-0.69231 0.45606-14.769 9.7672-0.53846 0.34204v10.869l0.53846 0.34204 14.769 9.7672 0.69231 0.45606 0.69231-0.45606 14.769-9.7672 0.53846-0.34204v-10.869l-0.53846-0.34204-14.769-9.7672zm-1.2308 3.7245v6.6128l-6.3462 4.2185-4.9615-3.3064zm2.4615 0 11.308 7.5249-4.9615 3.3064-6.3462-4.2185zm-1.2308 8.7411 5.3462 3.5344-5.3462 3.5344-5.3462-3.5344zm-13.538 1.0261 3.7692 2.5083-3.7692 2.5083zm27.077 0v5.0166l-3.7692-2.5083zm-21.077 3.9525 6.3077 4.2185v6.6128l-11.308-7.5249zm15.077 0 5 3.3064-11.308 7.5249v-6.6128z" stroke-width="1.2234"/>
</svg>
