<svg width="32px" height="32px" fill="#000000" version="1.1" viewBox="0 0 50 50" xmlns="http://www.w3.org/2000/svg">
 <path d="m6.5217 1.1426c-1.8341 0-3.4397 0.52165-4.6153 1.4712-1.1756 0.94957-1.8937 2.3565-1.8937 3.8935 0 2.9822 2.6706 5.2905 6.2012 5.4284a1.074 1.074 0 0 0 0.30783 0.05095c1.9061 0 3.5285-0.55871 4.6875-1.5476 1.159-0.98893 1.8215-2.4147 1.8215-3.9317a1.074 1.074 0 0 0-0.0021-0.059443c-0.16744-3.001-2.8387-5.3053-6.5069-5.3053zm0 2.1484c2.836 0 4.2347 1.3925 4.3542 3.2439-0.0077 0.90465-0.35794 1.6731-1.0594 2.2716-0.70918 0.6051-1.8042 1.0318-3.2948 1.0318-2.8282 0-4.3606-1.5354-4.3606-3.3309 0-0.89778 0.3689-1.6359 1.0955-2.2227 0.72655-0.58685 1.8384-0.99355 3.2651-0.99355zm-5.4348 10.882a1.0871 1.0871 0 0 0-1.087 1.087v31.522a1.0871 1.0871 0 0 0 1.087 1.087h10.87a1.0871 1.0871 0 0 0 1.087-1.087v-31.522a1.0871 1.0871 0 0 0-1.087-1.087zm16.304 0a1.0871 1.0871 0 0 0-1.087 1.087v31.522a1.0871 1.0871 0 0 0 1.087 1.087h10.87a1.0871 1.0871 0 0 0 1.087-1.087v-17.935c0-2.1135 1.6909-3.8044 3.8044-3.8044 2.1135 0 3.8044 1.6908 3.8044 3.8044v17.935a1.0871 1.0871 0 0 0 1.087 1.087h10.87a1.0871 1.0871 0 0 0 1.087-1.087v-18.478c0-4.4854-1.3175-8.0387-3.539-10.462-2.2215-2.4233-5.3206-3.6685-8.649-3.6685-4.2438 0-6.8103 1.5501-8.4643 2.8278v-1.7408a1.0871 1.0871 0 0 0-1.087-1.087zm-15.217 2.1739h8.6957v29.348h-8.6957zm16.304 0h8.6957v2.8681a1.0871 1.0871 0 0 0 1.8958 0.72606s3.2236-3.5942 8.7424-3.5942c2.7966 0 5.2483 1.0025 7.0461 2.9637 1.7978 1.9612 2.9679 4.9293 2.9679 8.9929v17.391h-8.6957v-16.848a1.0871 1.0871 0 0 0-0.09129-0.44582c-0.24126-3.0715-2.7562-5.5325-5.887-5.5325-3.2887 0-5.9783 2.6896-5.9783 5.9783v16.848h-8.6957z" stroke-width="1.087"/>
</svg>
