<svg width="32px" height="32px" fill="#000000" version="1.1" viewBox="0 0 32 32" xmlns="http://www.w3.org/2000/svg">
 <path d="m2.9091 0c-1.5909 0-2.9091 1.3182-2.9091 2.9091v26.182c0 1.5909 1.3182 2.9091 2.9091 2.9091h26.182c1.5909 0 2.9091-1.3182 2.9091-2.9091v-26.182c0-1.5909-1.3182-2.9091-2.9091-2.9091zm0 2.9091h26.182v26.182h-7.5455v-9.8182h3.7727l0.54545-4.3636h-4.3182v-2.8182c0-1.2727 0.3125-2.1364 2.1364-2.1364h2.3636v-3.9545c-0.40341-0.051136-1.8011-0.13636-3.4091-0.13636-3.3523 0-5.6364 2.017-5.6364 5.7727v3.2727h-3.8182v4.3636h3.8182v9.8182h-14.091z" stroke-width="1.4546"/>
</svg>
